<?xml version="1.0" encoding="utf-8"?>
<!-- Generator: Adobe Illustrator 24.3.0, SVG Export Plug-In . SVG Version: 6.00 Build 0)  -->
<svg version="1.1" id="Layer_1" xmlns="http://www.w3.org/2000/svg" xmlns:xlink="http://www.w3.org/1999/xlink" x="0px" y="0px"
	 viewBox="0 0 78.06 62" style="enable-background:new 0 0 78.06 62;" xml:space="preserve">
<style type="text/css">
	.st0{fill:#9F9F9F;}
	.st1{fill:#2D2E2D;}
	.st2{fill:#B9CBAA;}
	.st3{fill:none;stroke:#B9CBAA;stroke-width:5;stroke-linecap:round;stroke-linejoin:round;stroke-miterlimit:10;}
</style>
<g>
	<g>
		<g>
			<g>
				<g>
					<g>
						<g>
							<path class="st0" d="M61.87,23.97c0,0-0.15,1.04,0.62,1.65c0.95,0.75,2.01,0.52,2.01,0.52l11.01-13.96l-2.05-1.69
								L61.87,23.97z"/>
						</g>
					</g>
				</g>
			</g>
			<g>
				<g>
					<g>
						<g>
							<path class="st1" d="M64.1,26.62c-0.47,0-1.2-0.11-1.88-0.65c-0.97-0.76-0.79-2.01-0.79-2.07l0.02-0.13l0.08-0.1L73.41,9.88
								l2.72,2.24L64.75,26.54l-0.15,0.03C64.58,26.58,64.39,26.62,64.1,26.62z M62.3,24.15c-0.01,0.24,0.03,0.78,0.47,1.12
								c0.58,0.46,1.22,0.47,1.49,0.45l10.63-13.48l-1.37-1.13L62.3,24.15z"/>
						</g>
					</g>
				</g>
			</g>
		</g>
		<g>
			<g>
				<g>
					<g>
						<g>
							<circle class="st0" cx="75.24" cy="10.42" r="2.37"/>
						</g>
					</g>
				</g>
			</g>
			<g>
				<g>
					<g>
						<g>
							<path class="st1" d="M75.24,13.24c-0.65,0-1.28-0.22-1.79-0.64c-1.2-0.99-1.37-2.76-0.38-3.96v0
								c0.99-1.2,2.76-1.37,3.96-0.38c0.58,0.48,0.94,1.15,1.01,1.9c0.07,0.75-0.15,1.48-0.63,2.06c-0.48,0.58-1.15,0.94-1.9,1.01
								C75.42,13.23,75.33,13.24,75.24,13.24z M73.76,9.2c-0.67,0.82-0.56,2.04,0.26,2.71c0.4,0.33,0.89,0.48,1.41,0.43
								c0.51-0.05,0.97-0.3,1.3-0.69c0.68-0.82,0.56-2.03-0.26-2.71C75.65,8.26,74.43,8.38,73.76,9.2L73.76,9.2z"/>
						</g>
					</g>
				</g>
			</g>
		</g>
	</g>
	<g>
		<g>
			<g>
				<g>
					<g>
						<path class="st0" d="M65.86,61.56H14.8c-0.01,0-0.03-0.01-0.03-0.03V26c0-14.06,11.5-25.56,25.56-25.56h0
							c14.06,0,25.56,11.5,25.56,25.56v35.53C65.88,61.54,65.87,61.56,65.86,61.56z"/>
					</g>
				</g>
			</g>
		</g>
		<g>
			<g>
				<g>
					<g>
						<path class="st1" d="M66.3,62H14.35c-0.01,0-0.03-0.01-0.03-0.03l0-35.51C14.33,12.21,25.6,0.26,39.85,0
							C54.4-0.26,66.33,11.5,66.33,26v35.97C66.33,61.99,66.32,62,66.3,62z M15.24,61.11h50.17c0.01,0,0.03-0.01,0.03-0.03v-34.6
							c0-14.61-11.96-26.39-26.55-25.56C25.71,1.68,15.22,12.63,15.22,26v35.09C15.22,61.1,15.23,61.11,15.24,61.11z"/>
					</g>
				</g>
			</g>
		</g>
	</g>
	<g>
		<g>
			<g>
				<g>
					<g>
						<path class="st1" d="M60.34,56.01H27.28c-2.2,0-3.99-1.8-3.99-3.99V28.64c0-11.29,9.23-20.52,20.52-20.52h0
							c11.29,0,20.52,9.23,20.52,20.52v23.37C64.33,54.21,62.54,56.01,60.34,56.01z"/>
					</g>
				</g>
			</g>
		</g>
	</g>
	<g>
		<g>
			<g>
				<g>
					<g>
						<ellipse class="st2" cx="36.51" cy="22.35" rx="6.14" ry="6.09"/>
					</g>
				</g>
			</g>
		</g>
	</g>
	<g>
		<g>
			<g>
				<g>
					<g>
						<ellipse class="st2" cx="52.77" cy="22.35" rx="6.14" ry="6.09"/>
					</g>
				</g>
			</g>
		</g>
	</g>
	<g>
		<g>
			<g>
				<g>
					<g>
						<ellipse class="st1" cx="38.82" cy="22.35" rx="1.47" ry="1.46"/>
					</g>
				</g>
			</g>
		</g>
	</g>
	<g>
		<g>
			<g>
				<g>
					<g>
						<ellipse class="st1" cx="55.12" cy="22.35" rx="1.47" ry="1.46"/>
					</g>
				</g>
			</g>
		</g>
	</g>
	<g>
		<g>
			<g>
				<g>
					<g>
						<g>
							<path class="st0" d="M21.02,23.89c0,0,0.2,1.36-0.81,2.16c-1.24,0.98-2.63,0.67-2.63,0.67L3.19,8.48l2.68-2.2L21.02,23.89z"
								/>
						</g>
					</g>
				</g>
			</g>
			<g>
				<g>
					<g>
						<g>
							<path class="st1" d="M18.11,27.22c-0.36,0-0.6-0.05-0.63-0.06l-0.15-0.03L2.57,8.42l3.35-2.76L21.44,23.7l0.02,0.13
								c0.01,0.07,0.23,1.62-0.98,2.57C19.62,27.08,18.7,27.22,18.11,27.22z M17.82,26.31c0.35,0.04,1.26,0.06,2.11-0.61
								c0.65-0.51,0.68-1.33,0.66-1.63L5.81,6.9l-2,1.65L17.82,26.31z"/>
						</g>
					</g>
				</g>
			</g>
		</g>
		<g>
			<g>
				<g>
					<g>
						<g>
							<circle class="st0" cx="3.54" cy="6.19" r="3.1"/>
						</g>
					</g>
				</g>
			</g>
			<g>
				<g>
					<g>
						<g>
							<path class="st1" d="M3.55,9.73c-1.02,0-2.04-0.44-2.74-1.29c-0.6-0.73-0.88-1.65-0.79-2.59s0.54-1.79,1.27-2.39
								c0.73-0.6,1.66-0.88,2.59-0.79C4.82,2.75,5.67,3.2,6.28,3.93C7.52,5.44,7.3,7.68,5.8,8.92C5.14,9.46,4.34,9.73,3.55,9.73z
								 M3.54,3.53c-0.61,0-1.2,0.21-1.68,0.61C1.31,4.59,0.97,5.23,0.9,5.93C0.83,6.64,1.04,7.32,1.49,7.87s1.09,0.89,1.79,0.95
								C4,8.9,4.68,8.68,5.23,8.23C6.36,7.3,6.52,5.63,5.59,4.5l0,0C5.14,3.95,4.5,3.61,3.8,3.54C3.71,3.54,3.62,3.53,3.54,3.53z"/>
						</g>
					</g>
				</g>
			</g>
		</g>
	</g>
	<g>
		<g>
			<g>
				<g>
					<g>
						<g>
							<ellipse class="st1" cx="54.41" cy="42.49" rx="6.84" ry="8.43"/>
						</g>
					</g>
				</g>
			</g>
			<g>
				<g>
					<g>
						<g>
							<path class="st2" d="M54.42,53.15c-4.99,0-9.06-4.78-9.06-10.65s4.06-10.65,9.06-10.65s9.06,4.78,9.06,10.65
								S59.41,53.15,54.42,53.15z M54.42,36.29c-2.5,0-4.61,2.84-4.61,6.21c0,3.37,2.11,6.21,4.61,6.21c2.5,0,4.61-2.84,4.61-6.21
								C59.03,39.13,56.92,36.29,54.42,36.29z"/>
						</g>
					</g>
				</g>
			</g>
		</g>
	</g>
</g>
</svg>
