<svg id="Layer_1" data-name="Layer 1" xmlns="http://www.w3.org/2000/svg" viewBox="0 0 21.88 21.07"><defs><style>.cls-1{fill:#828282;}</style></defs><title>substance-icon</title><path class="cls-1" d="M21.86,3.24a3.52,3.52,0,0,0-.34-1.1,3.88,3.88,0,0,0-2-1.87A3.58,3.58,0,0,0,18.6,0c-.11,0-.23,0-.35,0H3.63c-.12,0-.24,0-.35,0A3.55,3.55,0,0,0,2.16.36a3.84,3.84,0,0,0-1.88,2A3.17,3.17,0,0,0,0,3.24c0,.11,0,.23,0,.34v14c0,.12,0,.25,0,.37a3.78,3.78,0,0,0,1,2,4,4,0,0,0,1.28.88,3.94,3.94,0,0,0,.95.26c.11,0,.23,0,.35,0H18.25a.21.21,0,0,1,.11,0c.13,0,.26,0,.39,0a3.91,3.91,0,0,0,2.37-1.46,3.71,3.71,0,0,0,.74-1.74,2.45,2.45,0,0,1,0-.27v-14C21.86,3.47,21.87,3.35,21.86,3.24ZM11.6,14.86H9.74c-.15,0-.17,0-.22-.16l-.7-2a.11.11,0,0,0-.13-.1H5.49a.1.1,0,0,0-.12.09c-.22.66-.43,1.33-.65,2,0,.15-.08.18-.24.18H2.88c-.17,0-.2,0-.15-.21.33-.92.65-1.84,1-2.77C4.35,10.07,5,8.25,5.64,6.44a2.75,2.75,0,0,0,.16-.9c0-.1,0-.12.13-.12H8.2a.15.15,0,0,1,.17.12Q10,10.1,11.66,14.67a.19.19,0,0,1,0,.08C11.7,14.81,11.68,14.86,11.6,14.86Zm7.15-3.8c0,.19,0,.37,0,.56a.14.14,0,0,1-.15.15,6.18,6.18,0,0,1-1.29,0h-3s-.1,0-.09.06A1.59,1.59,0,0,0,14.94,13a2.49,2.49,0,0,0,1,.31,5.3,5.3,0,0,0,1.32-.08,3.82,3.82,0,0,0,.82-.22c.07,0,.07,0,.07.06v1.38a.22.22,0,0,1-.14.22,5,5,0,0,1-1.33.31,7.12,7.12,0,0,1-1.46,0,3.22,3.22,0,0,1-2.94-2.51,4.44,4.44,0,0,1,.28-3,3.28,3.28,0,0,1,1.79-1.72,3.32,3.32,0,0,1,1.18-.19,3.55,3.55,0,0,1,1.61.29A2.67,2.67,0,0,1,18.5,9.36,3.68,3.68,0,0,1,18.75,11.06Z"/><path class="cls-1" d="M7.07,7.06l.12.41c.3,1,.65,2.09,1,3.13,0,.07.07.15,0,.2s-.13,0-.2,0H6c-.09,0-.09,0-.06-.1.36-1.12.72-2.24,1-3.37,0-.09,0-.19.07-.29Z"/><path class="cls-1" d="M15.42,10.46H14.27s-.08,0-.07-.05a1.39,1.39,0,0,1,.85-1.18,1.29,1.29,0,0,1,1.7.62,1.12,1.12,0,0,1,.1.48.08.08,0,0,1-.06.08.65.65,0,0,1-.27.05Z"/></svg>