<?xml version="1.0" encoding="utf-8"?>
<!-- Generator: Adobe Illustrator 24.3.0, SVG Export Plug-In . SVG Version: 6.00 Build 0)  -->
<svg version="1.1" id="Layer_1" xmlns="http://www.w3.org/2000/svg" xmlns:xlink="http://www.w3.org/1999/xlink" x="0px" y="0px"
	 viewBox="0 0 85.61 47.67" style="enable-background:new 0 0 85.61 47.67;" xml:space="preserve">
<style type="text/css">
	.st0{fill:#23201F;}
	.st1{fill:#FFFFFF;}
	.st2{fill:#EA1F3A;}
	.st3{font-family:'OpenSans-Regular';}
	.st4{font-size:1.9427px;}
</style>
<g>
	<rect class="st0" width="47.67" height="47.67"/>
	<path class="st1" d="M8.52,29.26c1.91-0.92,3.82-1.38,5.73-1.38c0.65,0,1.32,0.06,2.02,0.18c0.69,0.12,1.32,0.35,1.89,0.69
		c0.56,0.34,1.02,0.79,1.37,1.35c0.35,0.56,0.52,1.26,0.52,2.11v7.58c0,0.52,0.13,0.88,0.39,1.08c0.26,0.2,0.56,0.3,0.91,0.3
		c0.22,0,0.43-0.06,0.65-0.18l-0.33,3.25c-0.61,0.28-1.28,0.42-2.02,0.42c-1.39,0-2.39-0.44-3-1.32c-1,0.56-1.8,0.94-2.41,1.14
		c-0.61,0.2-1.2,0.3-1.76,0.3c-1.39,0-2.55-0.44-3.49-1.32c-0.93-0.88-1.4-2.07-1.4-3.55c0-1.4,0.43-2.5,1.3-3.28
		c0.87-0.78,2-1.27,3.39-1.47l3.65-0.54v-1.08c0-0.8-0.25-1.33-0.75-1.59c-0.5-0.26-1.05-0.39-1.66-0.39
		c-0.74,0-1.49,0.12-2.25,0.36c-0.76,0.24-1.44,0.54-2.05,0.9L8.52,29.26z M13.86,37.33c-0.61,0.08-1.1,0.3-1.47,0.66
		c-0.37,0.36-0.55,0.88-0.55,1.56c0,1.24,0.61,1.87,1.82,1.87c0.35,0,0.68-0.06,1.01-0.18c0.33-0.12,0.75-0.32,1.27-0.6v-3.67
		L13.86,37.33z"/>
	<g>
		<rect x="24.06" y="28.3" class="st1" width="4.5" height="16.06"/>
		<path class="st2" d="M26.32,20.13c0.13-0.35,0.36-0.59,0.64-0.79c0.35-0.25,0.75-0.31,1.16-0.28c0.28,0.02,0.56,0.07,0.82,0.2
			c0.5,0.24,0.8,0.65,0.94,1.18c0.2,0.8,0.08,1.55-0.31,2.27c-0.22,0.39-0.48,0.75-0.79,1.06c-0.35,0.34-0.72,0.67-1.1,0.97
			c-0.33,0.26-0.67,0.5-1.03,0.71c-0.22,0.14-0.42,0.13-0.64,0c-0.52-0.31-1-0.67-1.46-1.06c-0.23-0.19-0.45-0.39-0.66-0.6
			c-0.6-0.6-1.06-1.3-1.19-2.15c-0.1-0.65-0.03-1.29,0.36-1.86c0.24-0.34,0.58-0.55,0.99-0.65c0.35-0.08,0.71-0.12,1.06-0.04
			C25.67,19.24,26.06,19.59,26.32,20.13z"/>
	</g>
	<path class="st1" d="M44.66,3.03v41.33h-3.78l-0.13-1.32c-0.61,0.56-1.3,1.02-2.08,1.38c-0.78,0.36-1.63,0.54-2.54,0.54
		c-1.09,0-1.99-0.26-2.7-0.78c-0.72-0.52-1.29-1.2-1.73-2.05c-0.43-0.84-0.74-1.77-0.91-2.8c-0.17-1.02-0.26-2.02-0.26-2.98
		c0-0.96,0.09-1.96,0.26-2.98c0.17-1.02,0.48-1.96,0.91-2.8c0.43-0.84,1.01-1.52,1.73-2.05c0.72-0.52,1.62-0.78,2.7-0.78
		c0.78,0,1.51,0.13,2.18,0.39c0.67,0.26,1.29,0.61,1.86,1.05V3.03H44.66z M40.17,31.97c-0.52-0.36-1-0.6-1.43-0.72
		c-0.43-0.12-0.83-0.18-1.17-0.18c-0.87,0-1.55,0.4-2.05,1.2c-0.5,0.8-0.75,2.11-0.75,3.91c0,1.8,0.25,3.11,0.75,3.91
		c0.5,0.8,1.18,1.2,2.05,1.2c0.35,0,0.74-0.05,1.17-0.15c0.43-0.1,0.91-0.33,1.43-0.69V31.97z"/>
	<g>
		<path class="st0" d="M52.48,20.41c0.78,0,1.4,0.21,1.86,0.63c0.46,0.42,0.68,1.07,0.68,1.94c0,0.84-0.23,1.48-0.68,1.91
			c-0.46,0.44-1.07,0.66-1.86,0.66c-0.78,0-1.4-0.22-1.86-0.66c-0.46-0.44-0.68-1.07-0.68-1.91c0-0.87,0.23-1.52,0.68-1.94
			C51.08,20.62,51.7,20.41,52.48,20.41z"/>
		<path class="st1" d="M52.45,24.12c-0.64,0-1.17-0.13-1.61-0.39c0.03,0.04,0.06,0.09,0.09,0.12c0.37,0.44,0.88,0.66,1.51,0.66
			c0.64,0,1.14-0.22,1.51-0.66c0.03-0.04,0.06-0.08,0.09-0.12C53.62,23.99,53.09,24.12,52.45,24.12z"/>
		<rect x="50.2" y="28.3" class="st0" width="4.5" height="16.06"/>
	</g>
	<path class="st0" d="M60.45,36.67c0.09,1.28,0.43,2.33,1.04,3.13c0.61,0.8,1.61,1.2,3,1.2c1.22,0,2.28-0.34,3.19-1.02l0.59,2.95
		c-1.39,1.36-3.17,2.05-5.34,2.05c-1.26,0-2.34-0.25-3.22-0.75c-0.89-0.5-1.61-1.15-2.15-1.96c-0.54-0.8-0.93-1.73-1.17-2.8
		c-0.24-1.06-0.36-2.16-0.36-3.28c0-2.77,0.62-4.86,1.86-6.29c1.24-1.42,2.86-2.14,4.85-2.14c1.82,0,3.34,0.58,4.56,1.74
		c1.22,1.16,1.82,2.83,1.82,4.99c0,0.72-0.07,1.44-0.2,2.17H60.45z M65.21,34.38c-0.04-0.88-0.23-1.67-0.55-2.38
		c-0.33-0.7-0.92-1.05-1.79-1.05c-1.48,0-2.3,1.14-2.48,3.43H65.21z"/>
	<path class="st0" d="M81.61,32.09c-0.74-0.4-1.47-0.67-2.18-0.81c-0.72-0.14-1.49-0.21-2.31-0.21c-1,0-1.68,0.11-2.05,0.33
		c-0.37,0.22-0.55,0.53-0.55,0.93c0,0.28,0.1,0.52,0.29,0.72c0.2,0.2,0.64,0.44,1.34,0.72c0.87,0.4,1.64,0.71,2.31,0.93
		c0.67,0.22,1.34,0.53,1.99,0.93c0.74,0.4,1.31,0.9,1.73,1.5c0.41,0.6,0.62,1.42,0.62,2.47c0,1.6-0.51,2.88-1.53,3.82
		c-1.02,0.94-2.62,1.41-4.79,1.41c-1.13,0-2.22-0.14-3.26-0.42c-1.04-0.28-2.02-0.72-2.93-1.32l0.46-3.43
		c0.69,0.44,1.52,0.83,2.48,1.17c0.95,0.34,1.95,0.51,3,0.51c0.74,0,1.37-0.14,1.89-0.42c0.52-0.28,0.78-0.68,0.78-1.2
		c0-0.36-0.12-0.66-0.36-0.9c-0.24-0.24-0.58-0.46-1.01-0.66c-0.22-0.08-0.53-0.2-0.94-0.36c-0.41-0.16-0.88-0.35-1.4-0.57
		c-0.52-0.22-1.04-0.44-1.56-0.66c-0.52-0.22-0.96-0.43-1.3-0.63c-0.61-0.4-1.07-0.86-1.4-1.38c-0.33-0.52-0.49-1.18-0.49-1.99
		c0-1.48,0.58-2.64,1.73-3.46c1.15-0.82,2.77-1.23,4.85-1.23c0.74,0,1.58,0.06,2.54,0.18c0.95,0.12,1.82,0.32,2.61,0.6L81.61,32.09z
		"/>
	<text transform="matrix(1 0 0 1 82.7854 27.76)" class="st0 st3 st4">TM</text>
</g>
</svg>
