<svg id="Layer_1" data-name="Layer 1" xmlns="http://www.w3.org/2000/svg" viewBox="0 0 21.88 21.37"><defs><style>.cls-1{fill:#828282;}</style></defs><title>substance-icon</title><path class="cls-1" d="M18.1,0V0H3.78V0Z"/><path class="cls-1" d="M3.78,21.37v0H18.1v0Z"/><path class="cls-1" d="M21.88,3.61c0-.16,0-.32,0-.48A3.79,3.79,0,0,0,20.53.91,3.56,3.56,0,0,0,18.06,0H3.82a3.4,3.4,0,0,0-.9.09A3.85,3.85,0,0,0,1,1.26,3.56,3.56,0,0,0,0,3.37a1,1,0,0,1,0,.24V17.84c0,.14,0,.28,0,.41a3.81,3.81,0,0,0,1.3,2.2,3.66,3.66,0,0,0,2.48.91H18.06a3.07,3.07,0,0,0,.68-.05,3.85,3.85,0,0,0,2.62-1.83,3.19,3.19,0,0,0,.5-1.49.86.86,0,0,1,0-.23ZM11.4,15.06H9.55a.18.18,0,0,1-.2-.14l-.72-2c0-.08-.06-.11-.15-.11H5.31a.13.13,0,0,0-.14.1c-.21.67-.43,1.34-.64,2,0,.15-.08.17-.24.17H2.7c-.19,0-.22,0-.15-.22L4.26,9.91c.4-1.13.79-2.26,1.18-3.39a2.54,2.54,0,0,0,.19-.9c0-.1,0-.13.14-.13H8a.16.16,0,0,1,.18.12l3.27,9.24a.64.64,0,0,1,0,.07C11.53,15,11.5,15.06,11.4,15.06Zm7,0H16.89a.16.16,0,0,1-.17-.14,1.43,1.43,0,0,1-.06-.35.07.07,0,0,0-.07,0,2.88,2.88,0,0,1-1.63.62,3.22,3.22,0,0,1-1.2-.09,2.06,2.06,0,0,1-1.43-1.44,4,4,0,0,1-.18-1.19V7.94c0-.16,0-.18.19-.18H14c.15,0,.17,0,.17.18v4.14a2.48,2.48,0,0,0,.08.66.93.93,0,0,0,.81.7,2,2,0,0,0,1.45-.34c.06,0,.06-.09.06-.15v-5c0-.09,0-.14.13-.13h1.69c.14,0,.14,0,.14.15v5.51a12.39,12.39,0,0,0,.07,1.49C18.57,15,18.54,15.07,18.44,15.07Z"/><path class="cls-1" d="M6.88,7.18c0,.19.1.38.16.57.3,1,.62,2,1,3.05.05.16.05.16-.12.16h-2c-.09,0-.1,0-.07-.11.35-1.13.71-2.25,1-3.39a2.46,2.46,0,0,0,.07-.29Z"/></svg>