<svg id="Layer_1" data-name="Layer 1" xmlns="http://www.w3.org/2000/svg" xmlns:xlink="http://www.w3.org/1999/xlink" viewBox="0 0 64 64"><defs><style>.cls-1{opacity:0.5;}.cls-2{fill:url(#linear-gradient);}.cls-3{fill:url(#linear-gradient-2);}.cls-4{fill:url(#linear-gradient-3);}.cls-5{fill:url(#linear-gradient-4);}.cls-6{fill:url(#linear-gradient-5);}</style><linearGradient id="linear-gradient" x1="12.32" y1="4.33" x2="30.95" y2="61.52" gradientUnits="userSpaceOnUse"><stop offset="0" stop-color="#595959"/><stop offset="0.08" stop-color="#757575"/><stop offset="0.19" stop-color="#939393"/><stop offset="0.3" stop-color="#a9a9a9"/><stop offset="0.41" stop-color="#b6b6b6"/><stop offset="0.5" stop-color="#bababa"/><stop offset="0.63" stop-color="#b7b7b7"/><stop offset="0.72" stop-color="#adadad"/><stop offset="0.81" stop-color="#9d9d9d"/><stop offset="0.89" stop-color="#868686"/><stop offset="0.97" stop-color="#686868"/><stop offset="1" stop-color="#595959"/></linearGradient><linearGradient id="linear-gradient-2" x1="13.97" y1="22.39" x2="21.67" y2="-0.03" gradientUnits="userSpaceOnUse"><stop offset="0" stop-color="#2ce483"/><stop offset="1" stop-color="#86ffa6"/></linearGradient><linearGradient id="linear-gradient-3" x1="33.65" y1="4.33" x2="52.28" y2="61.52" xlink:href="#linear-gradient"/><linearGradient id="linear-gradient-4" x1="35.3" y1="22.39" x2="43" y2="-0.03" xlink:href="#linear-gradient-2"/><linearGradient id="linear-gradient-5" x1="56.63" y1="22.39" x2="64.33" y2="-0.03" xlink:href="#linear-gradient-2"/></defs><g class="cls-1"><polygon class="cls-2" points="21.24 51.55 32 51.55 21.43 12.45 10.67 12.45 21.24 51.55"/></g><polygon class="cls-3" points="10.77 51.55 0.01 51.55 10.57 12.45 21.34 12.45 10.77 51.55"/><g class="cls-1"><polygon class="cls-4" points="42.57 51.55 53.33 51.55 42.76 12.45 32 12.45 42.57 51.55"/></g><polygon class="cls-5" points="32.1 51.55 21.34 51.55 31.9 12.45 42.66 12.45 32.1 51.55"/><polygon class="cls-6" points="53.42 51.55 42.66 51.55 53.23 12.45 63.99 12.45 53.42 51.55"/></svg>