<svg id="Layer_1" data-name="Layer 1" xmlns="http://www.w3.org/2000/svg" xmlns:xlink="http://www.w3.org/1999/xlink" viewBox="0 0 108.91 66.56"><defs><style>.cls-1{opacity:0.5;}.cls-2{fill:url(#linear-gradient);}.cls-3{fill:url(#linear-gradient-2);}.cls-4{fill:url(#linear-gradient-3);}.cls-5{fill:url(#linear-gradient-4);}.cls-6{fill:url(#linear-gradient-5);}</style><linearGradient id="linear-gradient" x1="20.97" y1="-13.82" x2="52.67" y2="83.53" gradientUnits="userSpaceOnUse"><stop offset="0" stop-color="#595959"/><stop offset="0.08" stop-color="#757575"/><stop offset="0.19" stop-color="#939393"/><stop offset="0.3" stop-color="#a9a9a9"/><stop offset="0.41" stop-color="#b6b6b6"/><stop offset="0.5" stop-color="#bababa"/><stop offset="0.63" stop-color="#b7b7b7"/><stop offset="0.72" stop-color="#adadad"/><stop offset="0.81" stop-color="#9d9d9d"/><stop offset="0.89" stop-color="#868686"/><stop offset="0.97" stop-color="#686868"/><stop offset="1" stop-color="#595959"/></linearGradient><linearGradient id="linear-gradient-2" x1="23.77" y1="16.92" x2="36.87" y2="-21.24" gradientUnits="userSpaceOnUse"><stop offset="0" stop-color="#2ce483"/><stop offset="1" stop-color="#86ffa6"/></linearGradient><linearGradient id="linear-gradient-3" x1="57.27" y1="-13.82" x2="88.97" y2="83.53" xlink:href="#linear-gradient"/><linearGradient id="linear-gradient-4" x1="60.07" y1="16.92" x2="73.18" y2="-21.24" xlink:href="#linear-gradient-2"/><linearGradient id="linear-gradient-5" x1="96.37" y1="16.92" x2="109.48" y2="-21.24" xlink:href="#linear-gradient-2"/></defs><g class="cls-1"><polygon class="cls-2" points="36.14 66.56 54.45 66.56 36.47 0 18.15 0 36.14 66.56"/></g><polygon class="cls-3" points="18.32 66.56 0 66.56 17.99 0 36.3 0 18.32 66.56"/><g class="cls-1"><polygon class="cls-4" points="72.44 66.56 90.76 66.56 72.77 0 54.45 0 72.44 66.56"/></g><polygon class="cls-5" points="54.62 66.56 36.3 66.56 54.29 0 72.61 0 54.62 66.56"/><polygon class="cls-6" points="90.92 66.56 72.61 66.56 90.59 0 108.91 0 90.92 66.56"/></svg>