<svg id="Layer_1" data-name="Layer 1" xmlns="http://www.w3.org/2000/svg" viewBox="0 0 21.88 20.71"><defs><style>.cls-1{fill:#828282;}</style></defs><title>maya-icon</title><path class="cls-1" d="M0,20.7s0-.07,0-.1V.69C0,.61,0,.57.11.56s.34,0,.52,0l.7-.07.47,0L2.53.35,3,.31,3.72.24l.47,0L4.91.14l.45,0L6.11,0l.47,0a.07.07,0,0,1,.08.05L7.83,3c.4,1,.8,2,1.19,3S9.79,8,10.18,8.93l.77,2A.14.14,0,0,0,11,11c.08.18.15.37.23.56l.78,2c.4,1,.8,2,1.21,3a.5.5,0,0,0,0,.13s-.06,0-.08,0H8.72a.1.1,0,0,1-.11-.07l-1-1.92-.82-1.51-1-1.9c-.17-.3-.32-.61-.5-.9a.67.67,0,0,1-.09-.14l-1-1.93L2.69,5.67C2.33,5,2,4.31,1.6,3.63L.36,1.27C.26,1.08.15.89.05.69A.66.66,0,0,0,0,.83V20.49a1.08,1.08,0,0,1,0,.18Z"/><path class="cls-1" d="M13.26,16.66a1.09,1.09,0,0,1-.15-.35c-.23-.54-.44-1.09-.66-1.64-.28-.71-.55-1.41-.83-2.11L11,11.09A.21.21,0,0,1,11,11L11.78,9l1.47-3.57.88-2.14c.37-.89.73-1.78,1.1-2.66a.11.11,0,0,1,.13-.1h6.42s.08,0,.09,0a3.5,3.5,0,0,1-.26.51l-.44.82-.74,1.39c-.2.36-.39.72-.58,1.08l-.72,1.34c-.19.34-.37.69-.56,1l-.73,1.37L17.39,9l-.73,1.35c-.07.13-.15.26-.21.4l-.27.5s0,.06-.06.07l-.81,1.52-1,1.9C13.94,15.38,13.6,16,13.26,16.66Z"/><path class="cls-1" d="M0,20.68V.62s0,0,0,0L.78,2,1.72,3.8l.77,1.45L3.43,7c.26.49.51,1,.77,1.46l.93,1.77a.23.23,0,0,1,.07.14v0l-.05.09-5,10S.09,20.65,0,20.68Z"/><path class="cls-1" d="M16.44,10.75a2,2,0,0,1,.21-.41c.15-.3.31-.6.47-.89l.95-1.78.63-1.18.93-1.72c.25-.48.51-1,.77-1.44l.9-1.68.51-1,.06-.08V.66c0,.12,0,.24,0,.36,0,.34-.07.67-.11,1-.14,1.15-.32,2.29-.51,3.43s-.39,2.12-.62,3.17-.39,1.8-.6,2.69c-.3,1.23-.62,2.46-1,3.68s-.69,2.44-1.07,3.64q-.3,1-.63,1.92s0,.1-.06.09,0-.07,0-.11a1.1,1.1,0,0,0,0-.18,1.61,1.61,0,0,1,0-.22c0-.42,0-.83,0-1.25s0-.71-.05-1.06,0-.85-.08-1.27L17,15.29c-.05-.54-.1-1.07-.16-1.61-.08-.77-.19-1.55-.31-2.32,0-.15-.05-.3-.07-.45A.29.29,0,0,1,16.44,10.75Z"/><path class="cls-1" d="M21.87,1.26a.28.28,0,0,1,0,.09V20.59c0,.09,0,.12-.11.12H17.33s0-.05,0-.07c.11-.3.2-.61.3-.91s.24-.74.36-1.1.29-.94.43-1.4c.22-.71.42-1.42.61-2.13s.35-1.27.52-1.91L20,11.5c.16-.65.31-1.3.45-2s.34-1.54.49-2.31c.1-.56.21-1.12.31-1.68l.15-.91c.05-.29.09-.57.13-.85s.09-.6.13-.9.08-.58.11-.87l.09-.71S21.84,1.26,21.87,1.26Z"/><path class="cls-1" d="M0,20.68l1.47-2.92,3.64-7.27s0-.08.06-.07c0,.41,0,.82.08,1.24s.07,1.11.1,1.66l.09,1.38c0,.55.07,1.1.1,1.65s.07,1.11.11,1.66.06,1,.1,1.47a.12.12,0,0,1-.06.12,3.6,3.6,0,0,1-1,.54,7.72,7.72,0,0,1-1.33.37c-.26,0-.52.08-.78.11a8.42,8.42,0,0,1-1,.07c-.09,0-.19,0-.28,0H0Z"/><path class="cls-1" d="M16.44,10.75c.07.42.14.84.2,1.26s.08.65.12,1,.08.56.11.83,0,.52.07.78l.06.67c0,.16,0,.31,0,.46s.05.61.07.91c0,.09,0,.18,0,.27,0,.26,0,.51,0,.76l.06,1.1,0,.83c0,.26,0,.51,0,.77a.3.3,0,0,0,0,.16.18.18,0,0,1,0,.12c-.35-.36-.7-.71-1.06-1.06,0,0,0-.06,0-.1v-8s0-.07,0-.11C16.23,11.13,16.32,10.93,16.44,10.75Z"/><path class="cls-1" d="M17.21,20.64v-.19s0-.08.05-.09,0,.18,0,.29c0-.13.09-.24.12-.35.17-.52.35-1,.51-1.57.26-.82.51-1.64.75-2.47s.5-1.74.72-2.62c.13-.51.27-1,.4-1.54s.32-1.32.47-2c.19-.82.37-1.66.54-2.49.11-.57.22-1.14.32-1.71s.17-1,.25-1.46.11-.72.16-1.08l.12-.8.09-.77c0-.22.06-.43.08-.65s0-.29,0-.43,0,0,0-.06q0,.3,0,.6s0,0,0,0a2.66,2.66,0,0,1,0,.28.62.62,0,0,0,0,.19.55.55,0,0,1,0,.18c0,.11,0,.22-.05.33s0,.22,0,.33,0,.21,0,.32a1.35,1.35,0,0,0,0,.29c0,.1,0,.2,0,.3s0,.19-.05.29a1.6,1.6,0,0,1,0,.23c0,.21-.06.41-.1.62l-.15.88-.18,1c-.09.51-.19,1-.3,1.52s-.18.87-.28,1.31c-.06.28-.12.56-.19.84q-.2.88-.42,1.77l-.3,1.18c-.1.41-.21.81-.31,1.21s-.19.7-.3,1.06-.16.59-.25.88-.14.47-.21.71-.12.39-.17.59-.12.36-.17.54l-.12.4-.12.37c-.14.46-.3.9-.45,1.36,0,.13-.09.27-.14.41S17.24,20.68,17.21,20.64Z"/></svg>