<svg id="Layer_1" data-name="Layer 1" xmlns="http://www.w3.org/2000/svg" viewBox="0 0 21.88 21.34"><defs><style>.cls-1{fill:#828282;}</style></defs><title>substance-icon</title><path class="cls-1" d="M21.81,2.88A3.93,3.93,0,0,0,19,.09,3.51,3.51,0,0,0,18.37,0H3.57s0,0-.06,0a2.78,2.78,0,0,0-1,.21A4,4,0,0,0,1,1.19,4,4,0,0,0,.11,2.8,3.39,3.39,0,0,0,0,3.51V17.83s0,0,0,0a2.66,2.66,0,0,0,.2,1,4,4,0,0,0,1,1.48,4.09,4.09,0,0,0,1.52.89,4.22,4.22,0,0,0,.79.14H18.33l0,0a2.8,2.8,0,0,0,1.17-.25,3.87,3.87,0,0,0,2.18-2.3,2.66,2.66,0,0,0,.17-.79V3.36A3.7,3.7,0,0,0,21.81,2.88ZM11.43,9A3,3,0,0,1,9,11.85,7.6,7.6,0,0,1,7,12H6.63c-.09,0-.11,0-.11.12v2.74c0,.18,0,.2-.2.2H4.71c-.16,0-.18,0-.18-.18V5.66c0-.17,0-.18.19-.18l2.52-.05a6.17,6.17,0,0,1,2,.24,3,3,0,0,1,1.92,1.56A3.38,3.38,0,0,1,11.43,9Zm6.06,4.89a2.09,2.09,0,0,1-.84.9,3.36,3.36,0,0,1-1.25.42,5.18,5.18,0,0,1-1.18,0,4.57,4.57,0,0,1-1.7-.38.2.2,0,0,1-.13-.16c0-.37,0-.74,0-1.11,0-.18,0-.37,0-.55s.08-.06.13,0a3.38,3.38,0,0,0,.58.27,4.8,4.8,0,0,0,1.07.27,5.48,5.48,0,0,0,.7,0,1.4,1.4,0,0,0,.63-.16.41.41,0,0,0,0-.72,3.31,3.31,0,0,0-.78-.38,6.31,6.31,0,0,1-1.33-.65,2,2,0,0,1-1-2A2.1,2.1,0,0,1,13.64,8a3.12,3.12,0,0,1,1.27-.31,6.67,6.67,0,0,1,1.67.1,2.46,2.46,0,0,1,.53.15c.2.08.18,0,.19.28,0,.46,0,.92,0,1.39,0,.13-.07.18-.2.12a3.27,3.27,0,0,0-.91-.31,5.18,5.18,0,0,0-.87-.11h-.24a2.17,2.17,0,0,0-.43.08.41.41,0,0,0-.18.71,1.2,1.2,0,0,0,.27.19,8.28,8.28,0,0,0,1.06.46,4.41,4.41,0,0,1,1.18.66,1.81,1.81,0,0,1,.7,1.25A2.22,2.22,0,0,1,17.49,13.92Z"/><path class="cls-1" d="M12.39,13.07v1.66a.19.19,0,0,1,0-.08V13.16S12.37,13.1,12.39,13.07Z"/><path class="cls-1" d="M15.08,9.32a.49.49,0,0,1,.24,0Z"/><path class="cls-1" d="M6.52,8.77V7.34c0-.08,0-.11.1-.11A7.61,7.61,0,0,1,8,7.24a1.84,1.84,0,0,1,1,.38,1.3,1.3,0,0,1,.46.91,1.73,1.73,0,0,1,0,.6,1.32,1.32,0,0,1-.9,1,3,3,0,0,1-1.06.2H6.67c-.15,0-.15,0-.15-.15Z"/></svg>