<svg id="Layer_1" data-name="Layer 1" xmlns="http://www.w3.org/2000/svg" viewBox="0 0 21.19 21.88"><defs><style>.cls-1{fill:#828282;}</style></defs><title>postgres-logo</title><path class="cls-1" d="M21.16,13.12a1,1,0,0,0-.35-.51,1.31,1.31,0,0,0-1-.22c-.28,0-.56.1-.84.14l-.49,0c.07-.14.15-.26.21-.38A19.25,19.25,0,0,0,21,5.59a6.38,6.38,0,0,0,0-1.95,2.38,2.38,0,0,0-.47-1.19A6.19,6.19,0,0,0,18.64.79,7,7,0,0,0,15.56,0a9.07,9.07,0,0,0-2.79.36h-.16a8.58,8.58,0,0,0-2-.12A4.82,4.82,0,0,0,8.43.88a.15.15,0,0,1-.13,0A11.47,11.47,0,0,0,6.67.47,8.2,8.2,0,0,0,3.79.39,4.54,4.54,0,0,0,2,1.09,4.1,4.1,0,0,0,.4,3.1,7.07,7.07,0,0,0,0,5.42,10.14,10.14,0,0,0,.21,7.48,33.29,33.29,0,0,0,1.34,11.9a14.16,14.16,0,0,0,1.15,2.65A4.07,4.07,0,0,0,3.6,15.88,1.91,1.91,0,0,0,5,16.29a2,2,0,0,0,1-.44s.07,0,.12,0a1.6,1.6,0,0,0,.35.28,2.65,2.65,0,0,0,1,.36,4,4,0,0,0,1.55,0,3.16,3.16,0,0,0,.78-.23v.06c0,.68.05,1.37.11,2.05a6.08,6.08,0,0,0,.53,2.06,2.23,2.23,0,0,0,2,1.4,1.22,1.22,0,0,0,.27,0,1.88,1.88,0,0,0,.34,0,5,5,0,0,0,1.27-.32,3.11,3.11,0,0,0,1.59-1.31,5.41,5.41,0,0,0,.61-1.61,11.34,11.34,0,0,0,.19-1.32c0-.34.06-.68.07-1,0-.15,0-.3,0-.45s0-.08.1-.08a6.55,6.55,0,0,0,1.17-.05,5.69,5.69,0,0,0,1.29-.33,4.7,4.7,0,0,0,1.26-.79,1.51,1.51,0,0,0,.56-.9v-.48S21.17,13.14,21.16,13.12Zm-.65.55a1.53,1.53,0,0,1-.39.45A4,4,0,0,1,18.3,15a5.74,5.74,0,0,1-1.49.08,2.33,2.33,0,0,1-.46-.08c0,.31-.07.61-.11.91-.08.68-.16,1.35-.26,2-.06.42-.11.84-.21,1.26a3.62,3.62,0,0,1-.3.77,2.2,2.2,0,0,1-.91.88,4.06,4.06,0,0,1-1.9.48,2,2,0,0,1-1.81-1,3.31,3.31,0,0,1-.46-1.4,32,32,0,0,1-.14-3.53v-.12a3.54,3.54,0,0,1-.46.33A3,3,0,0,1,8,15.94a2.83,2.83,0,0,1-1.14-.29,1.07,1.07,0,0,1-.36-.27.51.51,0,0,1,.08-.76,1.93,1.93,0,0,1,.72-.28,8.22,8.22,0,0,0,.82-.21.94.94,0,0,0,.4-.28l.31-.39s0,0,0-.06,0,0-.06,0a2.6,2.6,0,0,1-1.09-.29c-.05,0-.07,0-.11,0-.55.59-1.08,1.2-1.6,1.82a3.12,3.12,0,0,1-.49.47A1.26,1.26,0,0,1,4,15.4a2.91,2.91,0,0,1-.78-.82,10.18,10.18,0,0,1-1-2A28.26,28.26,0,0,1,1.09,8.76c-.15-.67-.29-1.35-.4-2a8,8,0,0,1,0-2.08A5.23,5.23,0,0,1,1.1,3,3.51,3.51,0,0,1,3.67,1,6.75,6.75,0,0,1,5.82.91a11.45,11.45,0,0,1,2.57.61.11.11,0,0,0,.12,0A4.33,4.33,0,0,1,10.57.83a6.43,6.43,0,0,1,2,.17.17.17,0,0,0,.1,0A7.78,7.78,0,0,1,14.52.62a7.67,7.67,0,0,1,1.66,0A5.67,5.67,0,0,1,20.09,2.8a1.91,1.91,0,0,1,.34.92,6.22,6.22,0,0,1,0,1.83,18.85,18.85,0,0,1-2.05,5.92c-.26.48-.54,1-.84,1.42-.05.06,0,.09,0,.12a1.73,1.73,0,0,0,.71.14A6.23,6.23,0,0,0,19.6,13a2,2,0,0,1,.54,0A.46.46,0,0,1,20.51,13.67Z"/><path class="cls-1" d="M9.54,12.92a7.19,7.19,0,0,1,.28-.82c.14-.4.34-.78.49-1.18a5.45,5.45,0,0,0,.28-2.19,10.2,10.2,0,0,0-.23-1.66,1.68,1.68,0,0,0-.62-1,1.64,1.64,0,0,0-.91-.29,4,4,0,0,0-1.94.51s-.06,0-.1,0c0-.27.06-.53.1-.79a6.71,6.71,0,0,1,.73-2.17A3.58,3.58,0,0,1,9.4,1.72a4.07,4.07,0,0,1,1.69-.29,5.89,5.89,0,0,1,4.77,2.49,6.82,6.82,0,0,1,.94,1.69.14.14,0,0,0,0,.07v0a5.9,5.9,0,0,0-.94,0,2.34,2.34,0,0,0-1,.3,1.44,1.44,0,0,0-.67,1.16,3.68,3.68,0,0,0,.25,1.61,13,13,0,0,0,.92,2c.19.35.39.68.55,1a4.15,4.15,0,0,0,.6.9l.13.18-.21.08a1.12,1.12,0,0,0-.67.92c0,.26,0,.52-.05.78-.06.49-.11,1-.17,1.47s-.12,1-.19,1.46a13,13,0,0,1-.26,1.52,1.86,1.86,0,0,1-1.24,1.34,3.62,3.62,0,0,1-1.31.24,1.45,1.45,0,0,1-1.27-.8A2.76,2.76,0,0,1,11,18.78,34.56,34.56,0,0,1,10.87,15c0-.27,0-.53,0-.8a1.28,1.28,0,0,0-.55-1.08A1,1,0,0,0,9.54,12.92Z"/><path class="cls-1" d="M7.9,2a4.66,4.66,0,0,0-.47.54,6.31,6.31,0,0,0-1,2.14A9,9,0,0,0,6.15,7c0,.41,0,.81,0,1.21A15.22,15.22,0,0,1,6.09,10a3.12,3.12,0,0,0,.39,1.89,3.05,3.05,0,0,0,.63.8s0,.05,0,.09C6.54,13.37,6,14,5.45,14.65a1.31,1.31,0,0,1-.36.3.61.61,0,0,1-.64,0,1.94,1.94,0,0,1-.62-.59,8.66,8.66,0,0,1-.94-1.78A25.56,25.56,0,0,1,1.76,9c-.18-.77-.35-1.55-.47-2.33a6.67,6.67,0,0,1,.16-2.88,3,3,0,0,1,1-1.55A3.28,3.28,0,0,1,4,1.56a6.52,6.52,0,0,1,2,0A10.54,10.54,0,0,1,7.81,2Z"/><path class="cls-1" d="M17.1,12.38c-.11-.12-.11-.12,0-.25a3.32,3.32,0,0,0,.4-1.41,6.21,6.21,0,0,0-.08-1.43,6.41,6.41,0,0,1,0-2A7.32,7.32,0,0,0,17.52,6a1.9,1.9,0,0,0-.18-.67,7.19,7.19,0,0,0-3.63-3.94l-.05,0,.5-.09a8,8,0,0,1,1.47-.07,5.1,5.1,0,0,1,4,2,1.42,1.42,0,0,1,.23.69,5.57,5.57,0,0,1,0,1.58,18.68,18.68,0,0,1-2.66,6.91Z"/><path class="cls-1" d="M7.07,15.05a2.61,2.61,0,0,1,.61-.16,5.45,5.45,0,0,0,.69-.2A1.46,1.46,0,0,0,9,14.22l.4-.48.08-.09c.17-.18.29-.2.53,0a.65.65,0,0,1,.24.53.31.31,0,0,1-.07.2,2.21,2.21,0,0,1-2,1,2.89,2.89,0,0,1-.83-.14A.73.73,0,0,1,7.07,15.05Z"/><path class="cls-1" d="M19.79,13.59a3.17,3.17,0,0,1-.77.52,3.93,3.93,0,0,1-1.16.32,4.62,4.62,0,0,1-.91,0,1.51,1.51,0,0,1-.47-.09.11.11,0,0,1-.08-.11,1.3,1.3,0,0,1,.06-.44.44.44,0,0,1,.29-.3l0,0a.42.42,0,0,1,.43,0,1.72,1.72,0,0,0,.88.22,6.39,6.39,0,0,0,1.63-.15Z"/><path class="cls-1" d="M10,9.18a8.66,8.66,0,0,0-.23-2,1.13,1.13,0,0,0-.31-.59,1,1,0,0,0-.75-.23A3.6,3.6,0,0,0,6.83,7a.11.11,0,0,0-.06.13c0,.28,0,.56,0,.84a12.26,12.26,0,0,1-.09,1.82,2.63,2.63,0,0,0,.16,1.47,2.26,2.26,0,0,0,2,1.47c.06,0,.09,0,.11-.06a9.59,9.59,0,0,1,.53-1.44A4.73,4.73,0,0,0,10,9.18ZM9.42,7.24a.59.59,0,0,1-.72.17.69.69,0,0,1-.32-.31.22.22,0,0,1,.13-.33.88.88,0,0,1,.27,0,1.14,1.14,0,0,1,.46.09l.13.07A.22.22,0,0,1,9.42,7.24Z"/><path class="cls-1" d="M16.9,6.41c0-.06,0-.08-.08-.09a4,4,0,0,0-1.09,0,.94.94,0,0,0-.88,1,3,3,0,0,0,.15.94,10.06,10.06,0,0,0,.81,1.88c.25.48.53.93.75,1.43,0,0,0,0,0,.05h0a.17.17,0,0,0,0-.05,2.93,2.93,0,0,0,.23-1.13,9.43,9.43,0,0,0-.11-1.4,6.27,6.27,0,0,1,0-1.73C16.83,7.05,16.88,6.73,16.9,6.41Zm-.59.43a.6.6,0,0,1-.46.37.52.52,0,0,1-.5-.21c-.09-.1-.07-.2.05-.28a1,1,0,0,1,.51-.14.72.72,0,0,1,.31,0C16.32,6.67,16.36,6.74,16.31,6.84Z"/></svg>