<svg id="Layer_1" data-name="Layer 1" xmlns="http://www.w3.org/2000/svg" viewBox="0 0 21.88 21.33"><defs><style>.cls-1{fill:#828282;}</style></defs><title>premiere-icon</title><path class="cls-1" d="M21.86,3.28a3.58,3.58,0,0,0-.34-1.11,3.84,3.84,0,0,0-2-1.89A3.23,3.23,0,0,0,18.6,0c-.11,0-.23,0-.35,0H3.63c-.12,0-.24,0-.35,0A3.33,3.33,0,0,0,2.16.37a3.81,3.81,0,0,0-1.88,2A3.23,3.23,0,0,0,0,3.28c0,.11,0,.23,0,.35V17.78c0,.12,0,.25,0,.38a3.81,3.81,0,0,0,1,2,3.92,3.92,0,0,0,1.28.9,3.53,3.53,0,0,0,.95.26l.35,0H18.25s.07,0,.11,0a1.71,1.71,0,0,0,.39,0,3.85,3.85,0,0,0,2.37-1.48,3.74,3.74,0,0,0,.74-1.75,2.46,2.46,0,0,1,0-.28V3.63C21.86,3.51,21.87,3.39,21.86,3.28Zm-10,6.85A3,3,0,0,1,10,11.76,6,6,0,0,1,8,12l-.75,0c-.09,0-.11,0-.11.11,0,.92,0,1.84,0,2.77,0,.15,0,.18-.18.18H5.37c-.16,0-.17,0-.17-.18V5.62c0-.12,0-.14.13-.14.89,0,1.78-.05,2.68-.05a5.86,5.86,0,0,1,1.56.15,3.33,3.33,0,0,1,1.69.93A2.9,2.9,0,0,1,12,8.14,3.49,3.49,0,0,1,11.81,10.13Zm5.8-.5a4,4,0,0,0-1.14.13,2.47,2.47,0,0,0-.9.38.39.39,0,0,0-.18.35c0,1.44,0,2.89,0,4.33,0,.26,0,.26-.25.26H13.53c-.16,0-.19,0-.19-.19,0-1.72,0-3.43,0-5.14,0-.62,0-1.23-.05-1.84,0-.12,0-.14.13-.14h1.5c.15,0,.22,0,.26.19a3.38,3.38,0,0,1,.1.72v.07a3.88,3.88,0,0,1,.56-.52,3,3,0,0,1,1.77-.62c.12,0,.16,0,.16.16v1.7C17.76,9.6,17.73,9.63,17.61,9.63Z"/><path class="cls-1" d="M7.18,8.77c0-.48,0-1,0-1.44,0-.08,0-.1.1-.1a8.09,8.09,0,0,1,1.63.06,1.54,1.54,0,0,1,.93.55,1.53,1.53,0,0,1,.25,1.08,1.78,1.78,0,0,1-.07.39,1.33,1.33,0,0,1-.88.82A3.18,3.18,0,0,1,8,10.32c-.24,0-.49,0-.73,0-.07,0-.09,0-.09-.09C7.19,9.74,7.18,9.25,7.18,8.77Z"/></svg>