<?xml version="1.0" encoding="utf-8"?>
<!-- Generator: Adobe Illustrator 24.3.0, SVG Export Plug-In . SVG Version: 6.00 Build 0)  -->
<svg version="1.1" id="Layer_1" xmlns="http://www.w3.org/2000/svg" xmlns:xlink="http://www.w3.org/1999/xlink" x="0px" y="0px"
	 viewBox="0 0 123.98 17.49" style="enable-background:new 0 0 123.98 17.49;" xml:space="preserve">
<style type="text/css">
	.st0{fill:#010101;}
</style>
<g>
	<g>
		<path class="st0" d="M113.04,5.59h4.83c0.09-0.43,0.24-0.85,0.33-1.23c0.9-0.14,1.75-0.24,2.61-0.33
			c0.81-0.09,1.61-0.19,2.37-0.28c0.38-0.05,0.62-0.14,0.71-0.24c0.09-0.09,0.09-0.33,0.05-0.66c-0.05-0.57-0.24-1.09-0.62-1.71
			c-0.09-0.19-0.24-0.33-0.33-0.43c-0.09-0.09-0.19-0.19-0.33-0.24c-0.09-0.05-0.24-0.09-0.38-0.09c-0.14,0-0.28-0.05-0.47-0.05
			c-0.76,0.05-1.56,0.05-2.32,0.14c-0.81,0.05-1.56,0.14-2.32,0.24c-0.76,0.09-1.47,0.19-2.13,0.33c-0.66,0.14-1.28,0.24-1.85,0.43
			c0.05,0.62,0.05,1.37,0,2.18C113.14,4.31,113.09,4.93,113.04,5.59z"/>
		<path class="st0" d="M112.9,6.78c-0.09,0.76-0.19,1.52-0.28,2.28c-0.14,0.85-0.24,1.71-0.38,2.46h4.88
			c0.47-0.09,0.95-0.19,1.47-0.28c0.76-0.14,1.47-0.28,2.23-0.38c0.33-0.05,0.57-0.09,0.66-0.24c0.09-0.09,0.09-0.33,0-0.62
			c-0.05-0.24-0.14-0.52-0.24-0.76c-0.09-0.24-0.19-0.52-0.33-0.76c-0.28-0.43-0.76-0.62-1.37-0.62c-0.38,0-0.81,0.05-1.14,0.05
			c-0.38,0.05-0.76,0.05-1.14,0.09c0.14-0.43,0.24-0.9,0.38-1.33h-4.74V6.78z"/>
		<path class="st0" d="M112,12.7c-0.05,0.43-0.14,0.81-0.19,1.18c-0.09,0.66-0.14,1.18-0.14,1.52c0,0.33,0.05,0.57,0.09,0.76
			c0.05,0.19,0.24,0.33,0.57,0.52c0.24,0.09,0.52,0.19,0.85,0.33c0.33,0.09,0.62,0.19,0.95,0.24c0.28,0.05,0.52,0.05,0.76,0
			c0.19-0.05,0.33-0.19,0.33-0.43c0.14-0.71,0.33-1.47,0.52-2.37c0.14-0.57,0.24-1.18,0.38-1.75C116.12,12.7,112,12.7,112,12.7z"/>
	</g>
	<g>
		<path class="st0" d="M107.26,6.78l-0.05,0.05c-0.47,0.43-1.04,0.85-1.71,1.33c-0.66,0.43-1.47,0.81-2.37,1.09
			c0.24-0.85,0.47-1.66,0.66-2.37c0-0.05,0-0.05,0-0.09h-4.55c-0.09,0.52-0.14,1-0.24,1.52c-0.09,0.76-0.19,1.47-0.28,2.23
			c-0.05,0.33-0.09,0.66-0.09,1h7.49c1.33-0.62,2.51-1.28,3.51-1.99c1.04-0.76,1.75-1.56,2.23-2.42c0.05-0.09,0.09-0.24,0.14-0.33
			C112,6.78,107.26,6.78,107.26,6.78z"/>
		<path class="st0" d="M104.13,5.59c0.09-0.28,0.14-0.57,0.24-0.81c0.52-0.24,0.95-0.43,1.42-0.52c0.43-0.09,0.85-0.14,1.23-0.14
			c0.76,0,1.18,0.19,1.37,0.52c0.09,0.24,0,0.52-0.19,0.9l0,0h3.93c0-0.19-0.05-0.38-0.09-0.62c-0.19-0.81-0.47-1.47-0.85-2.04
			c-0.38-0.57-0.76-1.09-1.23-1.56c-0.57-0.57-1.23-0.9-1.94-1c-0.76-0.14-1.52-0.09-2.37,0.05c-0.85,0.14-1.71,0.38-2.56,0.76
			c-0.85,0.33-1.71,0.71-2.46,1.04c-0.19,0.09-0.33,0.33-0.47,0.66c-0.14,0.38-0.28,0.81-0.43,1.37c-0.09,0.38-0.19,0.85-0.28,1.33
			h4.69V5.59z"/>
		<path class="st0" d="M110.1,15.78c-0.33-0.24-0.66-0.57-1.04-0.9c-0.38-0.33-0.71-0.71-1.09-1.09c-0.38-0.38-0.71-0.71-1.04-1.09
			h-4.5c0.28,0.38,0.62,0.71,1,1.04c0.43,0.38,0.81,0.81,1.23,1.14c0.43,0.38,0.81,0.71,1.18,1c0.38,0.28,0.71,0.57,1,0.76
			c0.43,0.28,0.85,0.43,1.18,0.47c0.33,0.05,0.66,0,0.95-0.05c0.24-0.05,0.43-0.09,0.57-0.09c0.14-0.05,0.33-0.14,0.57-0.33
			c0.19-0.14,0.28-0.28,0.33-0.38S110.34,15.97,110.1,15.78z"/>
		<path class="st0" d="M98.49,12.7c-0.05,0.62-0.09,1.18-0.14,1.66c-0.05,0.52-0.09,0.9-0.09,1.18c-0.05,0.33,0,0.62,0.09,0.81
			c0.09,0.19,0.24,0.38,0.52,0.52c0.24,0.14,0.52,0.24,0.76,0.28c0.28,0.05,0.57,0.14,0.9,0.19c0.28,0.05,0.47,0.05,0.62,0
			c0.09-0.05,0.19-0.19,0.24-0.38c0.14-0.71,0.28-1.37,0.43-2.09c0.14-0.66,0.28-1.37,0.47-2.09h-3.79V12.7z"/>
	</g>
	<g>
		<path class="st0" d="M93.33,6.78c0,0.09-0.05,0.19-0.05,0.24c-0.24,1.04-0.47,2.04-0.76,3.03c-0.14,0.52-0.28,1-0.43,1.42h4.41
			c0.33-1.04,0.71-2.18,1-3.41c0.09-0.43,0.24-0.85,0.33-1.33h-4.5V6.78z"/>
		<path class="st0" d="M98.07,5.59c0.19-0.81,0.38-1.66,0.57-2.51c0.05-0.19,0.05-0.33,0.09-0.43c0-0.14,0-0.24-0.05-0.33
			c-0.05-0.09-0.09-0.19-0.19-0.28c-0.09-0.09-0.24-0.19-0.43-0.33c-0.33-0.19-0.71-0.43-1.14-0.62c-0.43-0.19-0.81-0.38-1.18-0.47
			c-0.38-0.09-0.66-0.09-0.95-0.05c-0.24,0.09-0.38,0.28-0.43,0.71c-0.14,0.81-0.33,1.71-0.52,2.7c-0.09,0.52-0.19,1.09-0.33,1.61
			H98.07z"/>
		<path class="st0" d="M90.48,5.59c0.19-0.62,0.33-1.18,0.52-1.71c0.24-0.76,0-1.42-0.71-1.9c-0.33-0.24-0.66-0.47-1.04-0.62
			c-0.33-0.19-0.71-0.33-1.09-0.43c-0.43-0.14-0.71-0.19-0.9-0.09c-0.19,0.09-0.33,0.28-0.47,0.66c-0.24,0.81-0.47,1.66-0.66,2.51
			c-0.14,0.52-0.24,1.09-0.38,1.61h4.74V5.59z"/>
		<path class="st0" d="M89.25,10.71c0.14-0.76,0.28-1.52,0.47-2.32c0.14-0.52,0.28-1.04,0.43-1.61h-4.64
			c-0.14,0.76-0.28,1.56-0.38,2.32c-0.09,0.85-0.14,1.61-0.14,2.37c0,0.05,0,0.05,0,0.09h4.08C89.16,11.28,89.2,11,89.25,10.71z"/>
		<path class="st0" d="M91.62,12.7c-0.28,0.71-0.62,1.33-0.95,1.71c-0.33,0.43-0.66,0.57-1,0.52c-0.28-0.09-0.47-0.33-0.57-0.71
			c-0.09-0.38-0.14-0.9-0.09-1.52l0,0h-3.89c0.05,0.28,0.05,0.52,0.09,0.76c0.14,0.62,0.33,1.14,0.57,1.61
			c0.19,0.38,0.43,0.66,0.71,0.9c0.28,0.24,0.57,0.47,0.9,0.62c0.76,0.43,1.71,0.66,2.84,0.71c0.57,0.05,1.09,0,1.52-0.05
			c0.43-0.09,0.9-0.24,1.33-0.47c0.62-0.38,1.18-0.95,1.71-1.71c0.43-0.66,0.81-1.47,1.18-2.42h-4.36V12.7z"/>
	</g>
	<g>
		<path class="st0" d="M58.63,10c0.28-1.09,0.57-2.13,0.81-3.18h-4.22c-0.28,1.33-0.52,2.65-0.76,3.98
			c-0.14-0.66-0.28-1.33-0.43-2.04c-0.14-0.66-0.24-1.33-0.38-1.94h-6.92c-0.09,0.76-0.24,1.52-0.33,2.32
			c-0.09,0.85-0.24,1.66-0.28,2.42h3.98c0.05-0.19,0.05-0.38,0.09-0.52c0.14-0.81,0.28-1.56,0.43-2.37
			c0.19,0.66,0.33,1.33,0.52,1.99c0.09,0.33,0.19,0.62,0.28,0.95h6.78C58.35,11.04,58.49,10.52,58.63,10z"/>
		<path class="st0" d="M59.77,5.59c0.19-0.76,0.43-1.47,0.62-2.13c0.19,0.38,0.43,0.66,0.66,0.95s0.47,0.43,0.71,0.47
			c0.19,0.05,0.47,0.05,0.81-0.05c0.24-0.05,0.52-0.09,0.85-0.14c0.33-0.05,0.71-0.09,1.09-0.14c-0.09,0.33-0.14,0.71-0.24,1.09h4.6
			c0.14-0.57,0.28-1.14,0.43-1.66c0.62-0.05,1.23-0.14,1.8-0.19c0.57-0.05,1.14-0.09,1.61-0.14c0.19,0,0.33-0.05,0.43-0.05
			c0.19,0.33,0.43,0.62,0.66,0.85c0.24,0.28,0.47,0.43,0.71,0.47c0.19,0.05,0.47,0.05,0.81-0.05c0.24-0.05,0.52-0.09,0.85-0.14
			c0.33-0.05,0.71-0.09,1.09-0.14c-0.09,0.33-0.14,0.71-0.24,1.09h4.6c0.14-0.57,0.28-1.14,0.43-1.66c0.62-0.05,1.23-0.14,1.8-0.19
			c0.57-0.05,1.14-0.09,1.61-0.14c0.38-0.05,0.62-0.09,0.71-0.19c0.05-0.09,0.05-0.33,0-0.62c-0.09-0.33-0.24-0.66-0.38-1
			c-0.19-0.33-0.38-0.66-0.62-0.95c-0.14-0.14-0.28-0.28-0.47-0.33c-0.19-0.05-0.47-0.09-0.85-0.09c-0.76,0.05-1.61,0.09-2.56,0.14
			c-0.95,0.05-1.94,0.14-2.89,0.24c-1,0.09-1.94,0.24-2.89,0.33c-0.95,0.14-1.8,0.28-2.56,0.43c-0.14-0.24-0.28-0.47-0.47-0.71
			C72.33,0.81,72.19,0.66,72,0.62c-0.19-0.05-0.47-0.09-0.85-0.09c-0.76,0.05-1.61,0.09-2.56,0.14c-0.95,0.05-1.94,0.14-2.89,0.24
			c-1,0.09-1.94,0.24-2.89,0.33c-0.95,0.14-1.8,0.28-2.56,0.43c-0.05,0-0.09,0.05-0.14,0.05c0,0-0.05,0-0.05-0.05
			c-0.24-0.14-0.43-0.24-0.57-0.33c-0.19-0.09-0.33-0.14-0.47-0.24C58.87,1.04,58.73,1,58.54,0.95c-0.14-0.05-0.33-0.09-0.52-0.14
			c-0.43-0.09-0.71-0.09-0.95,0c-0.19,0.09-0.38,0.33-0.47,0.71c-0.33,1.28-0.71,2.7-1.09,4.27h4.27V5.59z"/>
		<path class="st0" d="M76.74,6.78c-0.05,0.19-0.09,0.38-0.09,0.57c-0.19,1-0.38,2.04-0.52,3.03c-0.05,0.38-0.14,0.76-0.19,1.14
			h4.22c0.05-0.28,0.14-0.57,0.19-0.85c0.28-1.14,0.57-2.28,0.85-3.41c0.05-0.14,0.09-0.33,0.14-0.47
			C81.33,6.78,76.74,6.78,76.74,6.78z"/>
		<path class="st0" d="M67.59,10.71c0.28-1.14,0.57-2.28,0.85-3.41c0.05-0.14,0.09-0.33,0.14-0.47h-4.55
			c-0.05,0.19-0.09,0.38-0.09,0.57c-0.19,1-0.38,2.04-0.52,3.03c-0.05,0.38-0.14,0.76-0.19,1.14h4.22
			C67.49,11.28,67.54,11,67.59,10.71z"/>
		<path class="st0" d="M45.98,12.7c-0.05,0.43-0.09,0.81-0.09,1.18c-0.05,0.62-0.09,1.14-0.14,1.47c-0.05,0.33,0,0.57,0.09,0.76
			c0.09,0.19,0.28,0.33,0.57,0.47c0.28,0.19,0.62,0.33,0.9,0.38c0.33,0.09,0.62,0.14,0.95,0.24c0.33,0.09,0.57,0.09,0.66,0.05
			c0.09-0.05,0.19-0.19,0.24-0.43c0.05-0.47,0.14-1,0.24-1.61c0.09-0.62,0.24-1.28,0.38-1.99c0.05-0.19,0.05-0.38,0.09-0.57h-3.89
			V12.7z"/>
		<path class="st0" d="M63.04,12.7c0,0.14-0.05,0.33-0.05,0.52c-0.09,0.9-0.19,1.66-0.24,2.28c-0.05,0.24-0.05,0.47,0,0.62
			c0.05,0.19,0.19,0.33,0.33,0.47c0.14,0.14,0.33,0.24,0.57,0.33c0.24,0.09,0.47,0.19,0.71,0.24c0.28,0.09,0.52,0.14,0.71,0.19
			c0.19,0.05,0.43,0.09,0.57,0.09c0.19,0,0.28,0,0.38-0.09c0.09-0.05,0.14-0.19,0.19-0.33c0.19-0.95,0.38-1.94,0.62-2.99
			c0.09-0.43,0.19-0.85,0.28-1.28h-4.08V12.7z"/>
		<path class="st0" d="M75.79,12.7c0,0.14-0.05,0.33-0.05,0.52c-0.09,0.9-0.19,1.66-0.24,2.28c-0.05,0.24-0.05,0.47,0,0.62
			c0.05,0.19,0.19,0.33,0.33,0.47c0.14,0.14,0.33,0.24,0.57,0.33c0.24,0.09,0.47,0.19,0.71,0.24c0.28,0.09,0.52,0.14,0.71,0.19
			c0.19,0.05,0.43,0.09,0.57,0.09c0.19,0,0.28,0,0.38-0.09c0.09-0.05,0.14-0.19,0.19-0.33c0.19-0.95,0.38-1.94,0.62-2.99
			c0.09-0.43,0.19-0.85,0.28-1.28h-4.08V12.7z"/>
		<path class="st0" d="M53.46,5.59c-0.05-0.28-0.09-0.57-0.14-0.81c-0.09-0.57-0.19-1.04-0.24-1.42c-0.09-0.47-0.19-0.85-0.38-1.09
			c-0.19-0.24-0.43-0.47-0.85-0.62c-0.47-0.24-0.95-0.43-1.42-0.57c-0.43-0.14-0.9-0.28-1.37-0.43c-0.38-0.09-0.71-0.09-0.95,0
			C47.87,0.76,47.73,1,47.63,1.37c-0.14,0.66-0.28,1.42-0.43,2.28c-0.09,0.62-0.19,1.28-0.33,1.94H53.46z"/>
		<path class="st0" d="M51.81,12.7c0.19,0.52,0.33,1,0.47,1.47c0.19,0.52,0.38,1,0.57,1.37c0.24,0.57,0.62,0.95,1.18,1.14
			c0.62,0.24,1.23,0.38,1.8,0.52c0.71,0.14,1.09,0,1.14-0.52c0.19-0.9,0.47-1.94,0.76-3.13c0.09-0.28,0.14-0.62,0.24-0.9h-6.16V12.7
			z"/>
	</g>
	<g>
		<path class="st0" d="M45.88,5.59c0.05-0.14,0.09-0.28,0.09-0.38c0.19-0.76,0.43-1.42,0.57-1.99c0.09-0.33,0.09-0.62,0.05-0.81
			c-0.05-0.19-0.28-0.38-0.66-0.62c-0.33-0.24-0.76-0.43-1.18-0.66c-0.47-0.19-0.9-0.38-1.28-0.47s-0.71-0.14-0.9-0.05
			c-0.19,0.09-0.33,0.33-0.47,0.66c-0.14,0.62-0.28,1.28-0.47,2.09c-0.14,0.66-0.28,1.42-0.43,2.18h4.69V5.59z"/>
		<path class="st0" d="M41,6.78c-0.09,0.62-0.24,1.28-0.33,1.94c-0.14,0.95-0.28,1.8-0.43,2.65c0,0.05,0,0.09,0,0.14h4.12
			c0.09-0.47,0.24-0.95,0.33-1.42c0.19-0.85,0.43-1.71,0.62-2.51c0.05-0.28,0.14-0.52,0.19-0.76H41V6.78z"/>
		<path class="st0" d="M40.1,12.7c-0.05,0.33-0.09,0.66-0.14,1c-0.09,0.71-0.14,1.28-0.14,1.75c-0.05,0.33,0,0.57,0.09,0.76
			c0.09,0.19,0.28,0.33,0.57,0.47s0.57,0.24,0.85,0.33c0.28,0.09,0.62,0.19,0.95,0.28c0.33,0.09,0.57,0.09,0.66,0
			c0.09-0.05,0.19-0.19,0.24-0.43c0.09-0.57,0.24-1.23,0.43-1.94c0.14-0.71,0.33-1.47,0.52-2.28H40.1V12.7z"/>
	</g>
	<g>
		<path class="st0" d="M32.33,5.59c0.09-0.28,0.14-0.57,0.24-0.81c0.52-0.24,0.95-0.43,1.42-0.52c0.43-0.09,0.85-0.14,1.23-0.14
			c0.76,0,1.18,0.19,1.37,0.52c0.09,0.24,0,0.52-0.19,0.9l0,0h3.93c0-0.19-0.05-0.38-0.09-0.62c-0.19-0.81-0.47-1.47-0.85-2.04
			s-0.76-1.09-1.23-1.56c-0.57-0.57-1.23-0.9-1.94-1c-0.76-0.14-1.52-0.09-2.37,0.05s-1.71,0.38-2.56,0.76
			c-0.85,0.33-1.71,0.71-2.46,1.04c-0.19,0.09-0.33,0.33-0.47,0.66c-0.14,0.38-0.28,0.81-0.43,1.37c-0.09,0.38-0.19,0.85-0.28,1.33
			h4.69V5.59z"/>
		<path class="st0" d="M35.45,6.78l-0.05,0.05c-0.47,0.43-1.04,0.85-1.71,1.33c-0.66,0.43-1.47,0.81-2.37,1.09
			c0.24-0.85,0.47-1.66,0.66-2.37c0-0.05,0-0.05,0-0.09h-4.55c-0.09,0.52-0.14,1-0.24,1.52c-0.09,0.76-0.19,1.47-0.28,2.23
			c-0.05,0.33-0.09,0.66-0.09,1h7.49c1.33-0.62,2.51-1.28,3.51-1.99c1.04-0.76,1.75-1.56,2.23-2.42c0.05-0.09,0.09-0.24,0.14-0.33
			C40.19,6.78,35.45,6.78,35.45,6.78z"/>
		<path class="st0" d="M38.3,15.78c-0.33-0.24-0.66-0.57-1.04-0.9c-0.38-0.33-0.71-0.71-1.09-1.09c-0.38-0.38-0.71-0.71-1.04-1.09
			h-4.5c0.28,0.38,0.62,0.71,1,1.04c0.43,0.38,0.81,0.81,1.23,1.14c0.43,0.38,0.81,0.71,1.18,1c0.38,0.28,0.71,0.57,1,0.76
			c0.43,0.28,0.85,0.43,1.18,0.47c0.33,0.05,0.66,0,0.95-0.05c0.24-0.05,0.43-0.09,0.57-0.09c0.14-0.05,0.33-0.14,0.57-0.33
			c0.19-0.14,0.28-0.28,0.33-0.38C38.68,16.16,38.58,15.97,38.3,15.78z"/>
		<path class="st0" d="M26.73,12.7c-0.05,0.62-0.09,1.18-0.14,1.66c-0.05,0.52-0.09,0.9-0.09,1.18c-0.05,0.33,0,0.62,0.09,0.81
			c0.09,0.19,0.24,0.38,0.52,0.52c0.24,0.14,0.52,0.24,0.76,0.28c0.28,0.05,0.57,0.14,0.9,0.19c0.28,0.05,0.47,0.05,0.62,0
			c0.09-0.05,0.19-0.19,0.24-0.38c0.14-0.71,0.28-1.37,0.43-2.09c0.14-0.66,0.28-1.37,0.47-2.09h-3.79V12.7z"/>
	</g>
	<g>
		<path class="st0" d="M18.77,5.59c0.05-0.24,0.14-0.52,0.19-0.76c0.47-0.19,0.95-0.38,1.37-0.47c0.47-0.09,0.85-0.14,1.23-0.19
			c0.38,0,0.66,0,0.9,0.09s0.38,0.19,0.43,0.33c0.09,0.24,0.05,0.57-0.09,0.9h3.89c0-0.19-0.05-0.38-0.09-0.62
			c-0.19-0.81-0.47-1.47-0.85-2.04c-0.38-0.57-0.76-1.09-1.18-1.56c-0.38-0.38-0.81-0.62-1.33-0.76c-0.52-0.14-1.04-0.24-1.66-0.19
			c-0.57,0-1.18,0.09-1.85,0.24c-0.62,0.14-1.28,0.33-1.9,0.57c-0.62,0.24-1.23,0.47-1.8,0.76c-0.57,0.28-1.14,0.52-1.61,0.81
			c-0.14,0.05-0.24,0.38-0.33,0.95c-0.09,0.52-0.14,1.14-0.24,1.85h4.93V5.59z"/>
		<path class="st0" d="M22.09,6.78c-0.05,0.05-0.14,0.14-0.19,0.19c-0.43,0.43-1,0.85-1.66,1.28c-0.66,0.43-1.47,0.76-2.37,1.04
			c0.19-0.81,0.38-1.56,0.57-2.32c0-0.09,0.05-0.14,0.05-0.19h-4.64c-0.05,0.57-0.09,1.18-0.14,1.8c-0.09,1-0.14,1.94-0.24,2.89
			c0,0,0,0,0,0.05h7.49c0.24-0.09,0.47-0.19,0.66-0.33c0.71-0.38,1.37-0.76,1.99-1.14c0.62-0.43,1.14-0.85,1.56-1.28
			c0.28-0.28,0.52-0.52,0.76-0.81c0.24-0.28,0.43-0.57,0.57-0.9c0.05-0.09,0.09-0.19,0.09-0.28H22.09z"/>
		<path class="st0" d="M13.37,12.7c-0.05,0.43-0.09,0.85-0.14,1.28c-0.09,0.71-0.19,1.23-0.33,1.56c-0.09,0.33-0.05,0.62,0.05,0.81
			c0.14,0.19,0.28,0.38,0.57,0.52s0.52,0.24,0.85,0.33c0.33,0.09,0.62,0.19,0.95,0.24c0.33,0.05,0.57,0.05,0.66,0
			c0.09-0.05,0.19-0.19,0.28-0.38c0.09-0.66,0.24-1.33,0.33-1.99c0.14-0.66,0.28-1.37,0.43-2.09c0.24-0.05,0.47-0.14,0.71-0.19
			h-4.36V12.7z"/>
	</g>
	<g>
		<path class="st0" d="M6.73,5.59C6.83,5.5,6.87,5.4,6.97,5.26C7.2,4.98,7.44,4.69,7.73,4.46C7.96,4.22,8.2,4.08,8.44,3.93
			C8.67,3.74,8.86,3.7,8.96,3.74C9.05,3.79,9.1,3.89,9.15,4.03s0,0.38-0.05,0.66C9.05,4.98,9.01,5.21,8.91,5.5v0.05h4.41
			c0.05-0.33,0.09-0.62,0.14-0.9c0-0.19,0-0.38,0-0.62c0-0.19-0.05-0.43-0.09-0.66c-0.05-0.24-0.14-0.47-0.28-0.71
			c-0.14-0.24-0.33-0.47-0.57-0.71c-0.38-0.38-0.85-0.71-1.42-1S9.95,0.43,9.38,0.19C9.01,0.09,8.63,0,8.29,0c-0.33,0-0.66,0-1,0.05
			C7.01,0.09,6.73,0.19,6.49,0.28S6.07,0.52,5.88,0.62C5.4,0.9,4.98,1.23,4.5,1.66c-0.57,0.52-1,0.95-1.37,1.42S2.42,4.03,2.18,4.55
			C1.99,4.93,1.8,5.31,1.71,5.64h5.02V5.59z"/>
		<path class="st0" d="M9.1,11.09c-0.47-0.28-0.9-0.57-1.37-0.9c-0.47-0.28-0.85-0.62-1.23-1c-0.28-0.24-0.47-0.57-0.57-0.9
			c-0.09-0.33-0.09-0.66,0-1c0.05-0.19,0.09-0.33,0.14-0.52H1.37C1.33,6.97,1.33,7.2,1.33,7.39c0,0.47,0.09,0.9,0.24,1.33
			s0.38,0.81,0.66,1.14c0.28,0.33,0.57,0.66,0.95,0.95c0.28,0.24,0.62,0.47,0.95,0.71h5.74C9.62,11.38,9.38,11.23,9.1,11.09z"/>
		<path class="st0" d="M11.38,12.8l-0.05-0.05H5.97c0.19,0.14,0.38,0.24,0.57,0.33c0.33,0.24,0.66,0.43,0.9,0.62
			c0.24,0.19,0.38,0.33,0.47,0.52c0.09,0.14,0.05,0.28-0.09,0.38c-0.38,0.28-0.95,0.33-1.75,0.14c-0.81-0.19-1.75-0.62-2.8-1.28
			c-0.19-0.14-0.43-0.24-0.66-0.28c-0.24-0.05-0.47-0.09-0.76-0.14c-0.28,0-0.52,0-0.76,0.05s-0.52,0.09-0.71,0.19
			C0.14,13.37,0,13.56,0,13.84c0.05,0.24,0.33,0.57,0.85,1.04c1.04,0.95,2.04,1.61,2.99,2.04c0.95,0.38,1.99,0.57,2.99,0.57
			c0.76,0,1.42-0.09,1.99-0.28c0.57-0.19,1-0.38,1.42-0.66c0.38-0.28,0.71-0.57,0.9-0.85c0.24-0.28,0.43-0.62,0.52-0.85
			c0.19-0.38,0.28-0.71,0.19-1.04C11.8,13.41,11.66,13.08,11.38,12.8z"/>
		<path class="st0" d="M8.53,6.78c0,0.14-0.05,0.24-0.05,0.38C8.34,8.2,9.15,9.05,10.9,9.67c0.28,0.09,0.52,0.14,0.71,0.09
			c0.19-0.05,0.33-0.24,0.47-0.47c0.14-0.28,0.28-0.62,0.43-1c0.14-0.38,0.28-0.81,0.38-1.18c0.05-0.09,0.05-0.19,0.05-0.28H8.53
			V6.78z"/>
	</g>
</g>
</svg>
