<svg id="Layer_1" data-name="Layer 1" xmlns="http://www.w3.org/2000/svg" viewBox="0 0 21.88 20.99"><defs><style>.cls-1{fill:#828282;}</style></defs><title>substance-icon</title><path class="cls-1" d="M8.54.5A1.44,1.44,0,0,1,9.63,0a1.36,1.36,0,0,1,1.31,1.7c0,.05,0,.11,0,.16a.91.91,0,0,1-.26.48A1.41,1.41,0,0,1,8.27,1,1.16,1.16,0,0,1,8.45.58.14.14,0,0,1,8.54.5Z"/><path class="cls-1" d="M.39,18.05.51,18a.78.78,0,0,1,.9,0h0a1.16,1.16,0,0,1,.48.63,1,1,0,0,1-.61,1.13l-.11.05a1,1,0,0,1-.91-.3,1,1,0,0,1,.06-1.36A.46.46,0,0,0,.39,18.05Z"/><path class="cls-1" d="M20.56,20.81A2.69,2.69,0,0,1,19.4,21a2.17,2.17,0,0,1-1.88-2.48c0-.16.08-.33.12-.49a1.21,1.21,0,0,1,.29-.56,2.21,2.21,0,0,1,3.81.64s0,.08,0,.13a2,2,0,0,1-.42,2A3.05,3.05,0,0,1,20.56,20.81Z"/><polygon class="cls-1" points="5.37 14.96 5.37 14.96 5.37 14.96 5.37 14.96 5.37 14.96 5.37 14.96 5.37 14.96"/><path class="cls-1" d="M14.58,12.67h0Z"/><polygon class="cls-1" points="9.33 18.13 9.33 18.13 9.33 18.13 9.33 18.13 9.32 18.13 9.33 18.13 9.33 18.13 9.33 18.13"/><polygon class="cls-1" points="5.37 14.96 5.37 14.96 5.37 14.96 5.37 14.96 5.37 14.96 5.37 14.96"/><polygon class="cls-1" points="14.07 11.01 14.07 11.01 14.08 11.01 14.07 11 14.07 11.01 14.07 11.01 14.07 11.01"/><path class="cls-1" d="M17.61,10c-.05-.17-.12-.33-.18-.49a10.52,10.52,0,0,0-.45-1,7.9,7.9,0,0,0-1.3-1.78c-.19-.2-.4-.38-.59-.57a.18.18,0,0,0-.07,0l-.27-.23a8.32,8.32,0,0,0-1.87-1.09,11.33,11.33,0,0,0-1.16-.4,7.78,7.78,0,0,0-.94-.18,8,8,0,0,0-1.95,0A8.24,8.24,0,0,0,5.4,5.26l-.35.23A8.25,8.25,0,0,0,2.72,7.76a9.38,9.38,0,0,0-1,1.8,9.72,9.72,0,0,0-.4,1.4,8.28,8.28,0,0,0-.13,1.92,4.67,4.67,0,0,0,.25,1.53,1.27,1.27,0,0,1,.06.18,8.36,8.36,0,0,0,3,4.55A10,10,0,0,0,5.93,20l.19.08a8.19,8.19,0,0,0,3.34.76,11.43,11.43,0,0,0,1.65-.11c.37-.11.75-.18,1.12-.3a11.71,11.71,0,0,0,1.37-.58c.07,0,.12,0,.18-.05a8.37,8.37,0,0,0,2.85-2.7c.12-.17.21-.35.32-.52s.28-.55.41-.83a.08.08,0,0,1,0,0A8.38,8.38,0,0,0,17.61,10ZM13,11c-.48-.27-1-.57-1.44-.85s-1-.52-1.43-.84a.69.69,0,0,0-1,0l-.1,0a3.06,3.06,0,0,1-.56.31l-1.13.68.26.11a8.54,8.54,0,0,0,.9.27c1.74.54,3.47,1.11,5.21,1.66l.85.28a5.36,5.36,0,0,1,.57.17c.08,0,.09.08.09.15,0,.89,0,1.79,0,2.68a.16.16,0,0,1-.09.16c-.6.35-1.19.72-1.81,1s-1.27.75-1.91,1.11A19,19,0,0,0,9.7,19a.12.12,0,0,1-.13,0l-1-.58c-1.48-.85-3-1.75-4.46-2.58A.19.19,0,0,1,4,15.63c0-.87,0-1.74,0-2.6,0-.16.06-.17.18-.13l1.69.55c.09,0,.13.08.11.17a.46.46,0,0,0,.31.55,2.73,2.73,0,0,1,.55.32l1.49.83c.38.22.77.42,1.13.67.17.12.29,0,.43-.08l1.44-.86.26-.17c.2-.13-.33-.34-.4-.36-.42-.14-.84-.3-1.26-.43L8.6,13.68l-1.73-.55-.16-.06a3,3,0,0,1-.51-.16c-.7-.2-1.4-.43-2.1-.67-.1,0-.06-.1-.06-.16,0-.88,0-1.76,0-2.64,0-.08,0-.15.09-.19l2-1.16c.75-.43,1.49-.87,2.23-1.31l.94-.52c0,.32,0,.47,0,.78h.77V7c0-.3,0-.45,0-.68.63.34,1.17.68,1.27.74,1.26.69,2.49,1.45,3.75,2.14a.22.22,0,0,1,.11.23c0,.85,0,1.71,0,2.56,0,.18,0,.2-.21.15-.53-.18-1.07-.36-1.61-.52-.13,0-.19-.09-.16-.22S13.2,11.1,13,11Z"/><polygon class="cls-1" points="14.07 11.01 14.07 11.01 14.07 11.01 14.07 11.01 14.07 11.01 14.07 11.01"/></svg>