<svg id="Layer_1" data-name="Layer 1" xmlns="http://www.w3.org/2000/svg" viewBox="0 0 21.88 21.1"><defs><style>.cls-1{fill:#828282;}</style></defs><title>substance-icon</title><path class="cls-1" d="M21.71,9.48C21.23,8.05,19.86,7,18.77,6,17,4.26,15.24,2.47,13.47.72L12.83.08A.42.42,0,0,0,12.71,0a.1.1,0,0,0-.12.07.11.11,0,0,0,0,.08l.26.42c.77,1.25,1.48,2.57,2.3,3.79a3,3,0,0,1,.41.71s0,.07,0,.09-.1,0-.14,0c-.41-.21-.81-.43-1.22-.62C13.12,4,12,3.43,10.94,2.86L9.29,2,8.55,1.6a1.76,1.76,0,0,0-.81-.31s.37.49.42.53c.9.72,1.75,1.52,2.61,2.3.51.47,1,.92,1.56,1.37.11.09,1.28,1,1.22,1.07a.09.09,0,0,1-.11,0l-.66-.11C10.22,6,7.66,5.5,5.1,5.09c-.51-.09-1-.18-1.51-.29a.34.34,0,0,0-.2,0c-.08,0-.16.05-.16.14s.09.1.15.13a6.61,6.61,0,0,1,.7.26C5.36,6,6.68,6.57,8,7.13c.68.29,1.35.6,2,.91l1.08.48.6.23s.45.13.29.24h-.06a3.15,3.15,0,0,0-.43.05c-1.65.26-3.34.39-5,.59-2,.24-3.94.55-5.91.72l-.48.07s-.09,0-.11.08,0,.07.07.09.34.11.52.13c3.31.39,6.62.76,9.93,1.18a7.94,7.94,0,0,0,1.29.13c.08.07.19.16,0,.23-1.39.59-2.77,1.2-4.14,1.82L5.63,15a8,8,0,0,0-1.87.89c-.14.11-.35.11-.47.29a5,5,0,0,0,.89-.13,2.08,2.08,0,0,0,.25,0c2.68-.46,5.35-1,8-1.43.19,0,.38-.09.57-.13s.43-.12.53,0-1.2,1.08-1.31,1.18c-.46.41-.93.81-1.4,1.21l-.69.61L8.89,18.64c-.2.18-.4.37-.61.54a2.79,2.79,0,0,0-.52.51.09.09,0,0,0,0,.1.08.08,0,0,0,.08,0c.11-.05.22-.07.33-.12l.38-.19,3.12-1.6,1.9-1,.91-.48c.24-.12.48-.26.73-.38l.19-.08a.17.17,0,0,1,.1-.06c.22,0-.06.36-.11.44-.31.4-.53.85-.8,1.27s-.52.86-.78,1.29-.44.75-.65,1.13l-.32.57a1,1,0,0,0-.23.5c.27,0,.45-.32.63-.49.65-.62,1.28-1.25,1.92-1.87l2.68-2.61c.88-.88,1.76-1.76,2.62-2.66l.39-.41a3.7,3.7,0,0,0,1-2.17A3.43,3.43,0,0,0,21.71,9.48ZM14.6,3.35h0ZM8.31,1.55ZM14.38,19.2Zm.82-3.37h0ZM19.82,12c-.21.21-.44.4-.65.61s-.28.41-.47.51a.19.19,0,0,1-.18,0c-.09-.07.05-.34.1-.4s.07-.14,0-.17-.07,0-.1,0c-.63.34-1.31.64-1.92,1-.05,0-.12.1-.18,0s.3-.49.39-.56c.25-.23.56-.4.82-.63,0,0,0,0,.05-.06a.07.07,0,0,0,0-.06c-.06-.09-.19-.08-.29-.06a26.73,26.73,0,0,0-2.66.56c-.17.06-.55.18-.67,0s.16-.22.26-.25a18.42,18.42,0,0,0,2.32-1c.06,0,.12-.05.1-.13s-.08-.06-.14-.08c-.42-.1-.85-.09-1.27-.15S14.45,11,14,10.9s-1-.12-1.54-.19c-.21,0-.44,0-.6-.19s.44-.16.47-.17l.72,0,1.46-.16a20.58,20.58,0,0,0,2.07-.28s.15,0,.15-.08-.08,0-.13-.08a12.07,12.07,0,0,0-1.21-.55,11.21,11.21,0,0,0-1.11-.52l-.16-.07c-.2-.14,0-.26.19-.24.74.13,1.47.26,2.2.42.13,0,1.1.3,1.16.14s0-.08-.07-.12c-.37-.37-.79-.66-1.15-1a.33.33,0,0,1-.06-.1c0-.12.07-.11.15-.07.65.3,1.26.7,1.91,1,.32.15,0-.6,0-.6a.74.74,0,0,1,.52.34c.15.18.33.33.5.5a2.89,2.89,0,0,1,.82,1.29A1.92,1.92,0,0,1,19.82,12Zm1.17.84h0Z"/><polygon class="cls-1" points="17.99 9.04 18 9.04 18 9.04 17.99 9.04"/><polygon class="cls-1" points="20.28 9.98 20.28 9.97 20.28 9.97 20.28 9.98"/><path class="cls-1" d="M18.64,8.29h0Z"/><polygon class="cls-1" points="17.41 12.62 17.41 12.62 17.41 12.62 17.41 12.62 17.41 12.62 17.42 12.62 17.41 12.62"/></svg>