<svg id="Layer_1" data-name="Layer 1" xmlns="http://www.w3.org/2000/svg" viewBox="0 0 21.88 19.14"><defs><style>.cls-1{fill:#828282;}</style></defs><title>substance-icon</title><path class="cls-1" d="M12.68,0a1.21,1.21,0,0,1,.7.05A3,3,0,0,1,15,2.41c.07.44-.09.65-.52.75a4.6,4.6,0,0,1-2.12.12A1.53,1.53,0,0,1,11.21,2.1a1.11,1.11,0,0,1,.06-.65A2.2,2.2,0,0,1,12.68,0Z"/><path class="cls-1" d="M21.67,18.08A12.61,12.61,0,0,0,16,12a11.81,11.81,0,0,0-4.22-1.36c-.33,0-.68,0-1,0a.13.13,0,0,0,0,0A31.42,31.42,0,0,1,13,8c.31-.29.3-.3.68-.12l.09,0a2.83,2.83,0,0,0,2.49,0,6,6,0,0,0,2.13-1.77,2.08,2.08,0,0,0,.22-.38,1,1,0,0,0-.53-1.3,2,2,0,0,0-1.67,0,7.69,7.69,0,0,0-1.4.85.32.32,0,0,1-.35,0,31.4,31.4,0,0,0-3.11-1.16,6.77,6.77,0,0,0-4.31.16A9.87,9.87,0,0,0,2.6,8.46a2.54,2.54,0,0,0-.16.28.29.29,0,0,0,0,.32.27.27,0,0,0,.31.06,7.66,7.66,0,0,0,2.2-.85.72.72,0,0,0,.39-.74A1.54,1.54,0,0,1,5.92,6.2a5.51,5.51,0,0,1,1.9-1,1.56,1.56,0,0,1,.68-.06,4.48,4.48,0,0,1,1.67.57c.76.41,1.43.93,2.16,1.38l.27.18a21.66,21.66,0,0,0-3.18,3.46.34.34,0,0,1-.21.13c-.3.08-.6.16-.9.26a19.77,19.77,0,0,0-4.11,2,12.67,12.67,0,0,0-3.6,3.2,3.37,3.37,0,0,0-.52,1c0,.06,0,.13-.08.16v.46a.35.35,0,0,0,.33.24,3.51,3.51,0,0,0,1.33-.1,10.59,10.59,0,0,0,3.16-1.47,19.4,19.4,0,0,0,4-3.6.4.4,0,0,1,.32-.16c.26,0,.51,0,.77,0A19.31,19.31,0,0,1,13.1,13a13.24,13.24,0,0,1,3,.68,5.08,5.08,0,0,1,1.55.8A1.18,1.18,0,0,1,18.17,16s0,0,0,.07a.74.74,0,0,0,.12.69,3.34,3.34,0,0,0,.64.66,11.94,11.94,0,0,0,2.55,1.73h.23a.23.23,0,0,0,.19-.19v-.31C21.81,18.45,21.75,18.26,21.67,18.08Zm-4.16-13a1.33,1.33,0,0,1,.56.07c.2.09.23.2.09.37a1.13,1.13,0,0,1-.49.32,2.82,2.82,0,0,1-1.7,0l-.27-.08A4,4,0,0,1,17.51,5.07ZM7.41,13.2a16.31,16.31,0,0,1-4.25,3.55,5,5,0,0,1-1.29.53l-.11,0c-.47.06-.65-.16-.5-.61a3.35,3.35,0,0,1,1.13-1.57,10.65,10.65,0,0,1,2.75-1.45A14.32,14.32,0,0,1,7.55,13C7.53,13.1,7.46,13.14,7.41,13.2Z"/></svg>